# xmcd
#
# Track frame offsets: 
#        150
#        11225
#        23912
#        35962
#        56225
#        74375
#        89962
#        108712
#        123300
#        138525
#        152825
#        166212
#        175450
#        186637
#        199762
#        213875
#
# Disc length: 3037 seconds
#
# Revision: 6
# Processed by: cddbd v1.5.2PL0 Copyright (c) Steve Scherf et al.
# Submitted via: ExactAudioCopy v0.99pb5
#
DISCID=000bdb10
DTITLE=Various Artist - Country Hits [CD 3)
DYEAR=1995
DGENRE=Country
TTITLE0=Willie Nelson - On the Road Again
TTITLE1=Johnny Horton - North to Alaska
TTITLE2=Tammy Wynette - Stand By Your Man
TTITLE3=Rosanne Cash - Blue Moon With Heartache
TTITLE4=Johnny Cash - One Piece at a Time
TTITLE5=Lacy J. Dalton - Takin' It Easy
TTITLE6=Exile - I Can't Get Close Enough
TTITLE7=Rodney Crowell - She's Crazy for Leaving
TTITLE8=Johnny Duncan - Thinking of a Rendezvous
TTITLE9=Ricky Skaggs - Highway 40 Blues
TTITLE10=Claude King - Wolverton Mountain
TTITLE11=Lester Flatt and Earl Scruggs - The Ballad of Jed Clampett
TTITLE12=Stonewall Jackson - Waterloo
TTITLE13=Johnny  Paycheck - She's All I Got
TTITLE14=Moe Bandy - Hank Williams, You Wrote My Life
TTITLE15=Merle Haggard with Janie Frickie - Natural High
EXTD=YEAR: 1995
EXTT0=
EXTT1=
EXTT2=
EXTT3=
EXTT4=
EXTT5=
EXTT6=
EXTT7=
EXTT8=
EXTT9=
EXTT10=
EXTT11=
EXTT12=
EXTT13=
EXTT14=
EXTT15=
PLAYORDER=
